<svg width="76" height="36" viewBox="0 0 76 36" fill="none" xmlns="http://www.w3.org/2000/svg">
<path d="M17.96 0.535997C21.16 0.535997 24.056 1.288 26.648 2.792C29.272 4.264 31.336 6.328 32.84 8.984C34.344 11.608 35.096 14.584 35.096 17.912C35.096 21.24 34.328 24.232 32.792 26.888C31.288 29.544 29.224 31.624 26.6 33.128C24.008 34.6 21.128 35.336 17.96 35.336C14.792 35.336 11.896 34.6 9.272 33.128C6.68 31.624 4.616 29.544 3.08 26.888C1.576 24.232 0.824 21.24 0.824 17.912C0.824 14.584 1.576 11.608 3.08 8.984C4.616 6.328 6.68 4.264 9.272 2.792C11.896 1.288 14.792 0.535997 17.96 0.535997ZM17.96 8.168C15.272 8.168 13.128 9.048 11.528 10.808C9.96 12.536 9.176 14.904 9.176 17.912C9.176 20.888 9.96 23.256 11.528 25.016C13.128 26.776 15.272 27.656 17.96 27.656C20.616 27.656 22.744 26.776 24.344 25.016C25.944 23.256 26.744 20.888 26.744 17.912C26.744 14.936 25.944 12.568 24.344 10.808C22.776 9.048 20.648 8.168 17.96 8.168ZM56.459 35L50.987 27.368L46.523 35H37.499L46.379 21.032L37.163 8.216H46.379L51.803 15.752L56.267 8.216H65.291L56.219 21.848L65.675 35H56.459ZM75.8255 26.792V35H67.3295V26.792H75.8255Z" fill="url(#paint0_linear_2_768)"/>
<defs>
<linearGradient id="paint0_linear_2_768" x1="78" y1="42" x2="35.3982" y2="-28.1154" gradientUnits="userSpaceOnUse">
<stop stop-color="#FF5A09"/>
<stop offset="1" stop-color="#FF894E"/>
</linearGradient>
</defs>
</svg>
